<?xml version="1.0" encoding="UTF-8"?>
<!DOCTYPE svg PUBLIC "-//W3C//DTD SVG 1.1//EN" "http://www.w3.org/Graphics/SVG/1.1/DTD/svg11.dtd">
<svg xmlns="http://www.w3.org/2000/svg" version="1.1" width="100px" height="100px" style="shape-rendering:geometricPrecision; text-rendering:geometricPrecision; image-rendering:optimizeQuality; fill-rule:evenodd; clip-rule:evenodd" xmlns:xlink="http://www.w3.org/1999/xlink">
<g><path style="opacity:0.998" fill="#fefffe" d="M 3.5,13.5 C 34.1667,13.5 64.8333,13.5 95.5,13.5C 95.5,37.5 95.5,61.5 95.5,85.5C 64.8333,85.5 34.1667,85.5 3.5,85.5C 3.5,61.5 3.5,37.5 3.5,13.5 Z M 49.5,21.5 C 61.5046,21.3335 73.5046,21.5001 85.5,22C 86,22.5 86.5,23 87,23.5C 87.6667,32.8333 87.6667,42.1667 87,51.5C 86.5,52 86,52.5 85.5,53C 73.5,53.6667 61.5,53.6667 49.5,53C 49,52.5 48.5,52 48,51.5C 47.3333,42.1667 47.3333,32.8333 48,23.5C 48.7172,22.9558 49.2172,22.2891 49.5,21.5 Z"/></g>
</svg>
